<?xml version="1.0" encoding="UTF-8"?>

<!-- Generator: visioncortex VTracer -->
<svg id="svg" version="1.1" xmlns="http://www.w3.org/2000/svg" viewBox="0 0 500 500">
    <style>
        path { fill: #171717 }

        @media (prefers-color-scheme: dark) {
            path { fill: #D4D4D4 }
        }
    </style>

    <path d="M0,0 L2,0 L1,24 L3,46 L9,65 L18,82 L30,98 L36,106 L36,108 L38,108 L46,120 L55,134 L64,154 L68,169 L68,194 L63,209 L55,223 L51,229 L49,229 L47,233 L36,244 L23,254 L7,264 L5,264 L7,259 L15,243 L19,231 L20,224 L20,214 L17,204 L11,194 L0,179 L0,177 L-2,177 L-10,164 L-15,153 L-18,139 L-19,126 L-28,134 L-33,143 L-37,153 L-39,165 L-39,182 L-37,198 L-36,206 L-45,203 L-55,195 L-62,187 L-65,183 L-67,195 L-67,215 L-65,229 L-61,244 L-56,257 L-54,263 L-59,262 L-75,252 L-75,250 L-80,248 L-80,246 L-84,244 L-88,241 L-88,239 L-90,239 L-95,233 L-95,231 L-97,231 L-106,218 L-110,211 L-114,201 L-117,185 L-117,166 L-114,150 L-107,132 L-101,121 L-91,106 L-80,92 L-78,92 L-73,117 L-67,132 L-65,134 L-66,121 L-66,97 L-63,78 L-59,64 L-53,49 L-43,33 L-41,33 L-39,29 L-32,21 L-21,12 L-8,4 Z M-64,136 Z " transform="translate(276,118)" fill="currentColor" />
    <path d="M0,0 L4,2 L46,44 L43,49 L33,62 L25,75 L17,90 L11,105 L6,120 L1,146 L0,157 L-48,158 L-64,157 L-64,145 L-60,118 L-55,98 L-49,80 L-44,67 L-36,51 L-27,35 L-15,18 L-6,7 Z " transform="translate(64,82)" fill="currentColor" />
    <path d="M0,0 L10,0 L10,64 L-8,66 L-34,72 L-53,79 L-72,89 L-86,98 L-99,108 L-103,110 L-147,66 L-145,62 L-132,51 L-115,39 L-102,31 L-86,23 L-62,13 L-38,6 L-11,1 Z " transform="translate(229,0)" fill="currentColor" />
    <path d="M0,0 L7,6 L20,23 L31,40 L37,50 L48,74 L58,104 L63,128 L64,135 L64,157 L2,157 L1,156 L-2,132 L-8,110 L-15,92 L-23,76 L-33,60 L-42,49 L-44,46 L-43,42 L-35,35 Z " transform="translate(436,82)" fill="currentColor" />
    <path d="M0,0 L5,1 L13,8 L25,16 L40,25 L61,34 L81,40 L95,43 L112,45 L114,46 L114,108 L92,108 L70,104 L51,99 L31,92 L7,81 L-14,68 L-28,58 L-39,49 L-43,44 L-3,4 Z " transform="translate(125,392)" fill="currentColor" />
    <path d="M0,0 L64,0 L67,22 L72,43 L79,62 L91,85 L102,101 L110,111 L104,118 L66,156 L62,154 L54,145 L41,127 L31,111 L23,95 L14,74 L6,47 L1,20 L0,10 Z " transform="translate(0,263)" fill="currentColor" />
    <path d="M0,0 L10,0 L32,3 L55,8 L79,16 L97,24 L114,33 L130,43 L143,53 L150,58 L150,60 L154,62 L156,66 L112,110 L104,105 L104,103 L99,101 L91,95 L76,86 L57,77 L36,70 L10,65 L0,64 Z " transform="translate(263,0)" fill="currentColor" />
    <path d="M0,0 L62,0 L62,21 L59,38 L54,59 L46,82 L38,100 L28,118 L16,136 L3,152 L0,156 L-4,155 L-46,113 L-45,109 L-33,93 L-25,80 L-17,64 L-10,47 L-4,24 L-1,1 Z " transform="translate(438,263)" fill="currentColor" />
    <path d="M0,0 L4,1 L46,43 L44,47 L34,56 L19,67 L-1,79 L-18,88 L-42,97 L-62,103 L-81,107 L-89,108 L-110,108 L-110,46 L-109,45 L-86,42 L-63,36 L-45,29 L-26,19 L-6,5 Z " transform="translate(373,392)" fill="currentColor" />
</svg>
